<?xml version="1.0" standalone="no"?><!DOCTYPE svg PUBLIC "-//W3C//DTD SVG 1.1//EN" "http://www.w3.org/Graphics/SVG/1.1/DTD/svg11.dtd"><svg t="1569293965233" class="icon" viewBox="0 0 1196 1024" version="1.1" xmlns="http://www.w3.org/2000/svg" p-id="13065" width="299" height="256" xmlns:xlink="http://www.w3.org/1999/xlink"><defs><style type="text/css"></style></defs><path d="M1131.386715 1023.489002H63.32401V83.389081h1068.062705v940.099921z" fill="#FFFFFF" p-id="13066"></path><path d="M659.630584 161.872922a317.347705 317.347705 0 0 0-440.191978 15.355534 329.290898 329.290898 0 0 0-15.355534 444.457404 85.308523 85.308523 0 0 0 15.355534 17.061704l332.703239 341.234091a150.143 150.143 0 0 0 212.418222 0l332.703239-341.234091a153.555341 153.555341 0 0 0 15.355534-17.061704 327.584727 327.584727 0 0 0-11.943193-444.457404 320.760046 320.760046 0 0 0-441.045063-15.355534z" fill="#FF6E6E" p-id="13067"></path><path d="M471.951834 30.497797a357.44271 357.44271 0 0 1 48.625858 34.976494 11.943193 11.943193 0 0 1 6.824681-5.971596 233.745352 233.745352 0 0 0-55.450539-29.004898z m420.571017 0a299.432915 299.432915 0 0 1 65.687562 51.185114c120.285017 121.991188 63.128307 317.347705-47.772772 444.457403a85.308523 85.308523 0 0 1-15.355534 17.061705l-332.703239 341.234091c-40.948091 41.801176-39.24192 54.597455-90.427034 37.53575a150.143 150.143 0 0 0 192.797261-17.061705l332.703239-341.234091a153.555341 153.555341 0 0 0 15.355534-17.061704 327.584727 327.584727 0 0 0-15.355534-444.457404 341.234091 341.234091 0 0 0-104.076398-73.36533z" fill="#FFD1D1" p-id="13068"></path><path d="M43.703049 262.536979a13.649364 13.649364 0 0 1-7.677767 0 23.033301 23.033301 0 0 1-13.649363-29.857983 328.437813 328.437813 0 0 1 46.919687-85.308523 22.180216 22.180216 0 0 1 31.564154-4.265426 23.033301 23.033301 0 0 1 5.118511 28.151812 365.120477 365.120477 0 0 0-40.948091 75.924586 23.033301 23.033301 0 0 1-21.327131 15.355534" fill="#3F516B" p-id="13069"></path><path d="M558.966527 987.659422a170.617046 170.617046 0 0 1-122.844273-48.625858l-332.703239-341.234091a145.024489 145.024489 0 0 0-17.914789-14.502449 351.471114 351.471114 0 0 1-85.308523-241.423119 23.886386 23.886386 0 0 1 25.592557-24.739472 23.886386 23.886386 0 0 1 23.033301 24.739472 298.57983 298.57983 0 0 0 72.512244 209.005881l11.943193 13.649363 332.703239 341.234092a125.403528 125.403528 0 0 0 180.854068 0l332.703239-341.234092 11.943193-13.649363a307.963767 307.963767 0 0 0-10.237022-413.746336 297.726744 297.726744 0 0 0-408.627824-13.649363l-15.355535 13.649363-15.355534-13.649363a293.461318 293.461318 0 0 0-379.622926-11.090108 22.180216 22.180216 0 0 1-31.564153-4.265426 23.033301 23.033301 0 0 1 4.265426-33.270324 341.234091 341.234091 0 0 1 426.542614 0 341.234091 341.234091 0 0 1 455.547511 28.151812 354.883455 354.883455 0 0 1 17.061705 476.874643 72.512244 72.512244 0 0 1-15.355534 15.355534l-336.11558 343.793346a170.617046 170.617046 0 0 1-122.844273 52.891285" fill="#2F2F2F" p-id="13070"></path></svg>